<?xml version="1.0" encoding="UTF-8"?>
<svg id="b" data-name="Layer 2" xmlns="http://www.w3.org/2000/svg" xmlns:xlink="http://www.w3.org/1999/xlink" viewBox="0 0 1001.75 980.33">
  <defs>
    <style>
      .e {
        fill: url(#d);
      }

      .f {
        fill: #914198;
      }

      .g {
        fill: #983492;
      }

      .h {
        fill: #944197;
      }

      .i {
        fill: #63438e;
      }

      .j {
        fill: #dd2d80;
      }

      .k {
        fill: #854599;
      }

      .l {
        fill: #f37a23;
      }

      .m {
        fill: #b33392;
      }

      .n {
        fill: #9f3e96;
      }

      .o {
        fill: #ec3292;
      }

      .p {
        fill: #f3742a;
      }

      .q {
        fill: #47439a;
      }

      .r {
        fill: #3aba9d;
      }

      .s {
        fill: #ded223;
      }

      .t {
        fill: #e9a522;
      }
    </style>
    <radialGradient id="d" cx="573.8" cy="366.65" fx="573.8" fy="366.65" r="914.33" gradientTransform="translate(-57.85 -422.99) scale(1.47 1.52)" gradientUnits="userSpaceOnUse">
      <stop offset="0" stop-color="#09b698"/>
      <stop offset=".23" stop-color="#0095af"/>
      <stop offset=".32" stop-color="#00adee"/>
      <stop offset=".39" stop-color="#067eb8"/>
      <stop offset=".62" stop-color="#09b698"/>
      <stop offset=".78" stop-color="#067eb8"/>
    </radialGradient>
  </defs>
  <g id="c" data-name="Layer 1">
    <g>
      <path class="e" d="M183.15,463.81s21.45-51.54,93.38-63.82c71.93-12.29,82.82-45.39,85.46-30.72,2.64,14.68,12.87,116.04-105.26,164.17-21.78,8.87-52.47,7.51-43.23,54.95,8.91,34.81,81.5,84.64,165.98-11.95,84.47-96.59,144.56-245.06,369.42-221.4,268.86,30.04,287.34,343.13,219.58,421.4-53.68,67.35-96.79,77.36-136.39,96.48-7.92,30.04-40.48,107.43-114.39,107.4-23.76,0,8.8-39.14,14.08-75.54-40.48,4.55-73.91,10.92-165.43,0-18.18,8.04-86.23,84.64-169.83,59.16-28.25-14.44,20.24-35.5,51.92-83.73-182.14,25.48-302.69-132.88-302.69-298.53,0-58.7-69.07-23.21-121.43-107.85-32.56-58.7-35.64-166.56,10.56-107.4,33.27,25.72,114.39,20.93,148.27,97.39Z"/>
      <path class="j" d="M868.25,171.33c-7.86,0-15.55-4.01-20.1-11.36-42.96-69.26-115.49-110.61-194.02-110.61s-149.97,40.77-193.05,109.06c-7.2,11.41-21.98,14.63-33.02,7.18-11.04-7.45-14.14-22.74-6.94-34.15C473.04,49.14,566.05,0,660.04,0c47.23,0,88.11,12.7,129.39,36.74,39.92,23.24,74.11,56.64,98.89,96.58,7.12,11.47,3.89,26.74-7.2,34.1-3.99,2.65-8.45,3.91-12.86,3.91Z"/>
      <path class="j" d="M505.81,233.32c-4.59,0-9.23-1.37-13.32-4.22-10.93-7.62-13.81-22.96-6.44-34.26,38-58.29,100.83-93.09,168.08-93.09s129.76,34.63,167.79,92.64c7.39,11.28,4.55,26.63-6.36,34.28-10.9,7.65-25.74,4.7-33.14-6.58-29.13-44.45-77.09-70.98-128.29-70.98s-99.4,26.66-128.52,71.33c-4.61,7.07-12.14,10.89-19.8,10.89Z"/>
      <path class="j" d="M565.97,302.39c-4.03,0-8.11-1.06-11.85-3.28-11.43-6.78-15.38-21.86-8.83-33.69,22.44-40.46,64.14-65.6,108.84-65.6s86.4,25.14,108.84,65.6c6.56,11.82,2.6,26.9-8.83,33.69-11.43,6.78-26.01,2.69-32.57-9.13-13.95-25.17-39.8-40.8-67.44-40.8s-53.49,15.63-67.44,40.8c-4.41,7.95-12.45,12.4-20.72,12.4Z"/>
      <path class="m" d="M996.52,710.48c-.31,1.55-.64,3.07-.97,4.59.33-1.52.67-3.04.97-4.59Z"/>
      <path class="m" d="M1001.01,675.81c0-.06,0-.12.01-.18h0c0,.06,0,.12-.01.18Z"/>
      <path class="m" d="M815.71,369.77h0s-.06-.02-.09-.03c.03.01.06.02.09.03Z"/>
      <path class="m" d="M1000.08,686.56c.08-.79.16-1.58.24-2.38-.05.5-.11,1-.16,1.5-.03.29-.05.59-.08.88Z"/>
      <path class="m" d="M999.67,690.33c.15-1.24.27-2.51.41-3.76,0,0,0,0,0,0-.13,1.26-.25,2.52-.4,3.77Z"/>
      <path class="m" d="M999.67,690.35c-.82,6.93-1.87,13.65-3.14,20.11,1.28-6.46,2.33-13.17,3.14-20.11Z"/>
      <path class="m" d="M1000.58,681.29c-.05.61-.09,1.24-.15,1.84.18-1.95.33-3.92.48-5.9-.05.63-.1,1.26-.15,1.89-.06.73-.11,1.45-.18,2.17Z"/>
      <path class="p" d="M176.5,450.81c-10.65-18.19-24.35-30.9-39.21-40.35,1.42,9.92,2.55,22.25,1.96,34.45,1.32,47.1,33,51.2,44.88,91.47.03,1.57.01,3.12-.03,4.67l3.01.69c-9.38-30.42-11.31-63.62-10.6-90.93Z"/>
      <path class="n" d="M184.12,536.38c-11.88-40.27-43.56-44.37-44.88-91.47.59-12.2-.53-24.53-1.96-34.45-4.87-3.1-9.87-5.86-14.93-8.34-3.15-1.55-6.32-2.98-9.5-4.34-8.61-3.67-17.26-6.71-25.63-9.49,12.23,68.48-.32,71.43,3.18,106.44,1.38,13.78,7,28.8,13.74,42.54,5.77,2.19,11.16,4.19,16.02,6.36,15.44,6.89,25.58,15.55,25.58,38.03,0,2.78.04,5.56.11,8.34,7.9,8.12,18.16,17.27,32.57,28.5-5.17-30.84,4.92-53.08,5.66-77.47.05-1.55.07-3.1.03-4.67Z"/>
      <path class="l" d="M558.09,475.18c-44,65.99-94.59,50.06-95.47,172.47,1.32,48.24,17.16-3.19,41.8-46.87,5.84-10.36,13.04-19.9,21.24-28.93h0c-45.65-27.12,43.01-45.25,87.88-114.88,28.68-44.5,13.15-75.42-1.79-91.95-22.26,6.65-42.11,15.69-60.08,26.48,17.02,16.87,32.12,45.15,6.43,83.67Z"/>
      <path class="m" d="M989.79,736.24h0c.04-.12.08-.25.12-.37-.04.12-.09.25-.13.37Z"/>
      <path class="m" d="M995.11,717.13c-.3,1.32-.62,2.6-.94,3.89.32-1.29.64-2.58.94-3.89Z"/>
      <path class="m" d="M993.53,723.59c-.31,1.18-.63,2.34-.96,3.51.32-1.16.65-2.32.96-3.51Z"/>
      <path class="m" d="M991.8,729.83c-.32,1.09-.65,2.15-.99,3.22.33-1.07.67-2.13.99-3.22Z"/>
      <path class="t" d="M392.23,778.07c-46.4-57.42-31.66-105.12,5.27-177.09,19.09-37.2,26.1-64.57,28.25-82.97-15.4,20.32-30.41,40.3-46.28,58.44-20.96,23.97-41.19,38.91-59.9,47.32-17.88,84.16,5.1,126.51,72.65,154.31Z"/>
      <path class="t" d="M343.36,462.98l.04-.06c.78-1.34,1.54-2.68,2.26-4.01,0-.01.02-.03.02-.04,2.18-4.02,4.1-8.03,5.8-12,.05-.11.09-.21.14-.32.54-1.28,1.06-2.55,1.56-3.81,0-.02.01-.03.02-.05,1.03-2.63,1.95-5.23,2.79-7.81.03-.1.06-.19.09-.29.38-1.16.73-2.32,1.07-3.46.04-.14.09-.29.13-.44,1.1-3.74,2.01-7.4,2.77-10.96.03-.15.06-.29.09-.44.22-1.07.43-2.12.63-3.17.02-.11.04-.23.06-.34.44-2.36.81-4.67,1.12-6.91-11.88,11.6-27.69,16.73-27.69,16.73-97.01,18.43-72.59,104.44-72.59,104.44h2.98c40.2-18.08,64.36-42.57,78.71-67.05Z"/>
      <path class="t" d="M1001.73,653.28c0-.48-.01-.97-.02-1.45-.01-1.43-.02-2.87-.05-4.31,0-.18,0-.35,0-.53,0-.45-.02-.9-.03-1.35,0-.3-.02-.61-.03-.91-.04-1.55-.1-3.1-.16-4.66-.01-.33-.02-.65-.03-.98-.02-.36-.04-.72-.05-1.08,0-.15-.02-.3-.03-.45-.09-1.76-.19-3.52-.3-5.29-.03-.39-.04-.78-.07-1.17-.01-.21-.03-.41-.05-.62,0-.05,0-.11-.01-.16-.16-2.31-.35-4.63-.56-6.96-.01-.11-.02-.22-.03-.34-.47-5.17-1.07-10.38-1.79-15.62-.03-.21-.06-.42-.09-.62-.33-2.35-.68-4.7-1.05-7.05-.06-.38-.13-.77-.19-1.15-.36-2.23-.75-4.47-1.16-6.71-.07-.38-.14-.75-.21-1.13-.44-2.36-.91-4.73-1.4-7.1-.04-.21-.08-.41-.13-.62-.12-.55-.25-1.1-.37-1.66-5.15,22.88-14.35,49.27-30.78,71.98-1.85,3.47-3.81,7-5.91,10.6-1.03,1.76-2.07,3.53-3.16,5.32.4,2.73.72,5.45,1,8.17,1.29,12.3,1.46,24.56.65,36.62-.27,3.98-.64,7.93-1.11,11.85-4.62,38.58-18.81,74.39-37.06,101.61,1.74-1.33,3.5-2.72,5.26-4.15.43-.35.87-.7,1.3-1.06.78-.64,1.56-1.29,2.35-1.95.56-.47,1.12-.96,1.69-1.44,1.15-.98,2.3-1.99,3.45-3.02.64-.57,1.29-1.15,1.93-1.74.66-.6,1.32-1.2,1.98-1.81,1.02-.94,2.04-1.9,3.06-2.89.63-.61,1.27-1.23,1.91-1.85.89-.87,1.78-1.75,2.68-2.64.53-.53,1.07-1.07,1.6-1.61,1.29-1.31,2.58-2.64,3.88-4.01.3-.32.61-.65.91-.97,1.13-1.2,2.26-2.43,3.4-3.67.44-.48.87-.96,1.31-1.44,1.4-1.55,2.8-3.13,4.21-4.75.13-.15.26-.31.39-.46,1.33-1.54,2.68-3.13,4.02-4.74.39-.46.78-.93,1.16-1.4,1.47-1.78,2.95-3.59,4.44-5.46,1.02-1.18,2.02-2.42,3.01-3.71.33-.43.65-.9.97-1.34.64-.88,1.29-1.75,1.91-2.68.38-.56.75-1.16,1.12-1.74.55-.85,1.1-1.69,1.63-2.58.39-.65.77-1.32,1.15-1.99.5-.86.99-1.72,1.47-2.61.39-.72.77-1.46,1.15-2.2.45-.88.9-1.76,1.34-2.66.38-.79.76-1.59,1.13-2.4.42-.9.83-1.8,1.23-2.73.37-.85.74-1.72,1.1-2.59.38-.92.75-1.84,1.12-2.78.36-.92.71-1.84,1.06-2.78.34-.93.68-1.87,1.01-2.81.3-.86.6-1.73.89-2.61.04-.12.09-.25.13-.37.31-.93.6-1.87.9-2.82.33-1.07.67-2.13.99-3.22.27-.9.52-1.82.77-2.74.32-1.16.65-2.32.96-3.51.22-.84.42-1.7.63-2.56.32-1.29.64-2.58.94-3.89.05-.22.1-.44.15-.66.1-.46.2-.94.3-1.4.33-1.52.67-3.04.97-4.59,0,0,0-.02,0-.02,1.27-6.46,2.33-13.17,3.14-20.11,0,0,0-.01,0-.02.15-1.24.27-2.51.4-3.77.03-.29.06-.59.09-.88.05-.5.11-1,.16-1.5.03-.35.07-.7.11-1.05.06-.61.1-1.23.15-1.84.06-.72.12-1.45.18-2.17.05-.63.11-1.25.15-1.89.03-.47.07-.95.11-1.42,0-.06,0-.12.01-.18.02-.27.03-.55.05-.83.05-.79.09-1.59.14-2.38.05-.83.1-1.66.14-2.5.03-.51.05-1.02.08-1.54,0-.07,0-.15,0-.22.04-.95.06-1.91.1-2.87.03-.96.07-1.91.1-2.87,0-.17,0-.35.01-.52,0-.18,0-.35.01-.53,0-.17,0-.34.01-.51.01-.67.01-1.34.02-2.01.02-1.36.04-2.72.04-4.09,0,0,0,0,0-.01,0-.49,0-.99,0-1.48Z"/>
      <path class="t" d="M816.79,608.97c-47.08-41.41-115.27,20.93-135.07,31.86-12.08,6.66-20.78,6.71-25.74,5.75,2.74,10.77,3.43,22.99,1.55,36.17-7.04,49.2-74.35,63.66-82.71,120.55-5.61,38.18-4.88,77.56-3.79,99.35,53.02-49.29,26.71-49.91,54.83-112.54,28.6-63.71,66.43-81.46,122.75-70.08,56.32,11.38,115.27-69.63,68.19-111.04Z"/>
      <path class="i" d="M796.55,668.58c-9.38,1.25-17.33-4.99-33.25-2.05-17.24,3.19-19.68,11.36-25.93,13.2-3.36.99-9.18,3.68-12.76-5.92-3.74-10.01,14.08-34.59,44.22-32.54,30.14,2.05,42.38,25.35,27.72,27.3Z"/>
      <path class="t" d="M364.51,840.6c-34.26-15.6-69.4-4.27-86.69,3.48,46.12,29.96,102.7,44.77,167.09,36.57,18.44-21.89,26.07-45.96,26.07-45.96-29.04,34.59-58.51,27.76-106.47,5.92Z"/>
      <path class="k" d="M188.74,664.78c-8.4-9.12-28.64-26.85-39.81-36.47,5.58,40.8,18.4,80.08,37.51,115.08,16.04-45.57,12.11-67.95,2.29-78.61Z"/>
      <path class="g" d="M31.91,362.8c-43.07-50.78-39.44,53.61-7.59,111.03,5.16,8.34,10.48,15.5,15.88,21.71,10.6-25.67,20.98-73.23-8.29-132.74Z"/>
      <path class="r" d="M90.41,494.74c-3.5-35.01,9.05-37.97-3.18-106.44-9.31-3.09-18.26-5.87-26.44-8.86-10.12-3.69-19.04-7.7-25.91-13.02-1.02-1.3-2-2.49-2.97-3.63,29.27,59.51,18.89,107.07,8.29,132.74,3.6,4.14,7.24,7.86,10.89,11.21,18.44,16.93,37.17,24.49,53.05,30.54-6.74-13.73-12.36-28.75-13.74-42.54Z"/>
      <path class="h" d="M731.57,905.97c-3.33,10.67-11.46,35.47-15.33,44.52-7.43,17.38-11.94,29.83,1.46,29.83,1.28,0,2.55-.03,3.81-.07,17.06-12.88,29.39-25.72,38.3-37.71,12.35-16.63,27.86-40.43,30.5-51.64-23.3,9.13-46.53,10.22-58.74,15.07Z"/>
      <path class="s" d="M1001.73,654.77c0,1.37-.02,2.73-.04,4.09.02-1.08.04-2.16.04-3.25,0-.28,0-.57,0-.85,0,0,0,0,0,.01Z"/>
      <path class="s" d="M872.58,468.57c-27.31-10-34-49.68.22-71.43-9.49-6.07-19.59-11.61-30.29-16.59-.57-.27-1.14-.54-1.71-.8-2.19-1-4.42-1.97-6.66-2.92-.8-.34-1.6-.68-2.41-1.01-2.19-.9-4.39-1.78-6.63-2.63-.87-.33-1.75-.66-2.63-.98-2.23-.83-4.48-1.64-6.76-2.42-.03-.01-.06-.02-.09-.03-.78-.27-1.58-.52-2.37-.78-2.47-.82-4.95-1.63-7.48-2.4.34,13.66-.98,28.46-5.78,41.95-14.08,39.59-58.55,81,42.88,92.38,101.43,11.38,101.2,48.42,88.23,115.13-12.04,61.95,19.32,60.98,21.87,61.21.22.02.95.09,2.11.23-.28-2.72-.61-5.45-1-8.17,1.09-1.79,2.14-3.56,3.16-5.32,2.1-3.6,4.06-7.13,5.91-10.6-.13.18-.25.36-.38.54-2.18-73.84,32.56-164.4-90.17-185.33Z"/>
      <path class="s" d="M993.92,581.38c.12.55.25,1.1.37,1.66-.12-.57-.23-1.15-.35-1.72,0,.02-.01.04-.02.06Z"/>
      <path class="s" d="M1000.71,628c-.12-1.54-.25-3.08-.39-4.63.21,2.33.4,4.65.56,6.96,0-.04,0-.08,0-.12-.05-.74-.11-1.47-.16-2.21Z"/>
      <path class="s" d="M997.62,601.29c-.08-.51-.17-1.03-.25-1.54.38,2.36.73,4.71,1.05,7.05-.12-.9-.25-1.8-.39-2.7-.14-.94-.27-1.87-.41-2.81Z"/>
      <path class="s" d="M1000.06,620.64c-.09-.93-.2-1.87-.3-2.8.19,1.73.38,3.47.54,5.2,0-.03,0-.05,0-.08-.07-.77-.15-1.55-.23-2.32Z"/>
      <path class="s" d="M999.76,617.84c-.12-1.09-.23-2.19-.35-3.28.13,1.1.24,2.19.35,3.28Z"/>
      <path class="s" d="M999.4,614.56c-.28-2.37-.57-4.75-.9-7.14.33,2.39.62,4.76.9,7.14Z"/>
      <path class="s" d="M996.32,593.55c-.1-.55-.2-1.11-.31-1.67.41,2.24.8,4.48,1.16,6.71-.1-.63-.2-1.26-.31-1.89-.18-1.05-.36-2.11-.55-3.16Z"/>
      <path class="s" d="M1001.21,635.45c-.06-1.05-.14-2.11-.2-3.17.11,1.77.22,3.53.3,5.29-.02-.32-.03-.64-.04-.96-.02-.39-.04-.78-.06-1.16Z"/>
      <path class="s" d="M994.85,585.82c-.15-.72-.29-1.45-.44-2.17.49,2.37.96,4.74,1.4,7.1-.11-.57-.2-1.13-.31-1.7-.21-1.08-.43-2.15-.64-3.23Z"/>
      <path class="s" d="M1000.08,686.57s0,0,0,0c.03-.29.05-.59.08-.88-.03.29-.06.59-.09.88,0,0,0,0,0,0Z"/>
      <path class="o" d="M215.74,594.67c-.96-2.12-1.71-4.23-2.23-6.28-5.04-25.87,1.81-37.21,12.59-43.63-12.43-18.81-36.57-75.77,60.98-146.83-3.37.73-6.86,1.43-10.55,2.06-43.94,7.5-69.01,29.64-81.9,45.74-8.21,10.26-11.48,18.08-11.48,18.08-2.05-4.62-4.27-8.94-6.65-13-.71,27.31,1.22,60.52,10.6,90.93,6.03,19.58,15.16,37.98,28.64,52.92Z"/>
      <path class="o" d="M201.94,636.05c-8.9-6.39-16.67-12.19-23.52-17.52-14.41-11.23-24.67-20.38-32.57-28.5.07,2.74.17,5.47.3,8.2.49,10.09,1.41,20.13,2.78,30.09,11.16,9.62,31.41,27.35,39.81,36.47,9.81,10.66,13.75,33.04-2.29,78.61,11.9,21.8,26.25,41.93,42.82,59.72-2.09-13.4-3.03-33.63,1.93-60.35,9.68-52.11,11.66-77.36-29.26-106.72Z"/>
      <path class="o" d="M657.52,682.74c1.89-13.18,1.19-25.4-1.55-36.17-7.49-29.44-30.39-48-58.73-45.34-38.72,3.64-61.59,70.99-66.43,89.65-4.84,18.66-51.47,119.23-127.59,91.47-3.8-1.39-7.44-2.82-10.99-4.28-67.55-27.81-90.53-70.16-72.65-154.31-10.91,4.9-21.29,7.57-31,8.51-17.63,1.7-33.04-2.32-45.29-9.14,16.85,12.89,43.69,44.94,28.38,112.81-7.48,50.51,32.12,60.53,74.79,67.81,40.48,14.56,101.19,36.86,147.83-9.1,46.64-45.96,76.99-160.79,123.63-133.64,27.72,19.84-13.64,62.19-26.4,76.75-12.76,14.56-62.47,49.15-65.55,116.5-3.08,67.35-33.88,63.26-54.56,74.63-18.46,10.16-34.47,11.66-47.08,40.02,70.59,4,125.9-57,142.02-64.13.61.07,1.19.14,1.79.21l.06.23c.07-.07.14-.13.22-.2.92.11,1.82.21,2.73.32-.05-.87-.09-1.77-.14-2.71-1.09-21.79-1.82-61.17,3.79-99.35,8.36-56.88,75.67-71.35,82.71-120.55Z"/>
      <path class="o" d="M914.15,708.9c-29.09-11.63-6.41-38.35-14.65-114.49-10.56-97.61-137.93-62.12-169.61-55.97-31.68,6.14-38.28-12.29-38.28-12.29-11.22-25.26-.66-41.64,36.3-90.79,21.28-35.29,14.2-63.13,2.22-81.89-12.01-.78-23.53-1.04-34.58-.84-9.6.18-18.85.72-27.77,1.59,27.21,60.18.65,103.6-41.94,136.44-36.92,28.47-73.82,52.17-100.19,81.2-8.2,9.03-15.39,18.56-21.24,28.93-24.64,43.69-40.48,95.11-41.8,46.87.88-122.42,51.48-106.49,95.47-172.47,25.68-38.52,10.58-66.8-6.43-83.67-10.22,6.14-19.85,12.84-28.97,19.99-11.24,8.82-21.71,18.31-31.61,28.26,70.49,30.06-33.79,79.14-52.66,140.54-25.65,83.46-44.95,120.43-29.92,144.26,47.96,57.34,88.87-44.6,110.43-93.75,21.56-49.15,94.15-116.5,128.03-86.01,33.88,30.49,16.28,58.25,73.03,27.3,100.31-44.6,146.88,11.5,152.67,52.79,5.79,41.29-52.36,146.08-158.94,131.97-53.13,5.46-50.49,78.16-111.2,141.76,60.71-22.53,60.27-81.91,172.03-108.76,19.23-7.21,36.92-19.88,50.14-31.1,14.29-12.14,23.34-22.59,23.34-22.59l33.21-6.41,5.77-1.11,45.04-8.69,20.92-4.04c-18.29-1.65-30.61-3.73-38.81-7.01Z"/>
      <g>
        <path class="m" d="M805.77,366.56s0,.02,0,.02c2.52.76,5.02,1.55,7.48,2.37-2.47-.82-4.95-1.63-7.48-2.4Z"/>
        <path class="m" d="M1000.9,677.35c-17.87-.07-47.77-.11-47.93-.13-2.55-.23-33.91.74-21.87-61.21,12.97-66.71,13.2-103.76-88.23-115.13-101.43-11.38-56.96-52.79-42.88-92.38,4.79-13.48,6.11-28.27,5.78-41.92-4.16-1.26-8.4-2.43-12.72-3.53-1.08-.27-2.17-.54-3.25-.8-2.64-.64-5.32-1.26-8.02-1.84-1.97-.42-3.95-.84-5.95-1.22-1.25-.25-2.5-.49-3.77-.72-3.17-.58-6.38-1.12-9.63-1.61-.87-.13-1.74-.25-2.61-.38-3.59-.52-7.21-1-10.9-1.42,0,0-.01,0-.02,0-.31-.03-.61-.05-.91-.09-2.9-.3-5.77-.57-8.62-.81-3.07-.26-6.12-.48-9.13-.68-.03,0-.06,0-.09,0,11.98,18.77,19.06,46.6-2.22,81.89-36.96,49.15-47.52,65.53-36.3,90.79,0,0,6.6,18.43,38.28,12.29,31.68-6.14,159.05-41.64,169.61,55.97,8.24,76.14-14.44,102.86,14.65,114.49,8.2,3.28,20.52,5.36,38.81,7.01l-20.92,4.04,22.57,5.97c.47-3.92.85-7.87,1.11-11.85l-14.65-.89,54.3,2.72c2.66-11.97,4.53-24.91,5.52-38.55Z"/>
      </g>
      <path class="s" d="M947.7,723.59l-15.66-3.64c-21.04,5.39-21.56,4.16-60.13,67.93-29.49,48.74-79.76,89.15-112.37,112.07,25.42-6.24,48.62-15.11,66.11-22.78,88.82-56.21,122.05-153.57,122.05-153.57Z"/>
      <path class="q" d="M899.89,743.23s38.1-20.7,84.01,8.16c4.76-10.56,8.67-22.72,11.6-36.1-31.2-4.81-80.2-6.23-95.61,27.93Z"/>
      <path class="f" d="M957.92,712.89s-106.33-24.49-156.48,66.3c-47.25,85.53-82.79,46.28-149.65,131.61,33.65.13,55.55-3.27,79.99-6.02-.06.39-.14.79-.21,1.19,16.33-2.43,30.79-5.56,43.44-8.99,97.06-62.66,87.59-151.73,182.91-184.09Z"/>
    </g>
  </g>
</svg>