<?xml version="1.0" encoding="UTF-8"?>
<svg id="b" data-name="Layer 2" xmlns="http://www.w3.org/2000/svg" xmlns:xlink="http://www.w3.org/1999/xlink" viewBox="0 0 921.6 959.04">
  <defs>
    <style>
      .e {
        fill: url(#d);
      }

      .f {
        fill: #f9e52d;
      }

      .g {
        fill: #914198;
      }

      .h {
        fill: #983492;
      }

      .i {
        fill: #944197;
      }

      .j {
        fill: #63438e;
      }

      .k {
        fill: #dd2d80;
      }

      .l {
        fill: #854599;
      }

      .m {
        fill: #f37a23;
      }

      .n {
        fill: #b33392;
      }

      .o {
        fill: #9f3e96;
      }

      .p {
        fill: #ec3292;
      }

      .q {
        fill: #f3742a;
      }

      .r {
        fill: #47439a;
      }

      .s {
        fill: #3aba9d;
      }

      .t {
        fill: #ded223;
      }

      .u {
        fill: #e9a522;
      }
    </style>
    <radialGradient id="d" cx="591" cy="204.22" fx="591" fy="204.22" r="914.33" gradientUnits="userSpaceOnUse">
      <stop offset="0" stop-color="#09b698"/>
      <stop offset=".23" stop-color="#0095af"/>
      <stop offset=".32" stop-color="#00adee"/>
      <stop offset=".39" stop-color="#067eb8"/>
      <stop offset=".62" stop-color="#09b698"/>
      <stop offset=".78" stop-color="#067eb8"/>
    </radialGradient>
  </defs>
  <g id="c" data-name="Layer 1">
    <ellipse class="f" cx="460.8" cy="479.52" rx="460.8" ry="479.52"/>
    <g>
      <path class="e" d="M181.38,421.65s14.61-33.94,63.62-42.04c49.01-8.09,56.42-29.9,58.22-20.23,1.8,9.67,8.77,76.43-71.71,108.13-14.84,5.84-35.74,4.95-29.45,36.19,6.07,22.93,55.53,55.75,113.07-7.87,57.55-63.62,98.48-161.41,251.67-145.82,183.16,19.78,195.75,226,149.59,277.55-36.57,44.36-65.94,50.95-92.92,63.54-5.4,19.78-27.58,70.76-77.93,70.74-16.19,0,5.99-25.78,9.59-49.76-27.58,3-50.35,7.19-112.7,0-12.38,5.3-58.75,55.75-115.7,38.97-19.25-9.51,13.79-23.38,35.37-55.15-124.09,16.78-206.22-87.52-206.22-196.62,0-38.67-47.06-15.29-82.73-71.04-22.18-38.67-24.28-109.7,7.19-70.74,22.67,16.94,77.93,13.79,101.01,64.14Z"/>
      <path class="k" d="M648.12,229c-5.35,0-10.59-2.64-13.7-7.48-29.27-45.62-78.68-72.85-132.18-72.85s-102.17,26.85-131.52,71.83c-4.91,7.52-14.98,9.64-22.5,4.73-7.52-4.91-9.64-14.98-4.73-22.5,35.37-54.21,94.71-86.57,158.74-86.57,32.18,0,64.05,8.37,92.17,24.2,27.19,15.31,50.49,37.3,67.37,63.61,4.85,7.56,2.65,17.61-4.9,22.46-2.72,1.74-5.76,2.57-8.76,2.58Z"/>
      <path class="k" d="M401.2,269.83c-3.13,0-6.28-.9-9.07-2.78-7.44-5.02-9.41-15.12-4.39-22.56,25.89-38.39,68.69-61.31,114.51-61.31s88.4,22.81,114.31,61.02c5.04,7.43,3.1,17.54-4.33,22.58-7.43,5.04-17.54,3.1-22.58-4.33-19.85-29.27-52.52-46.75-87.4-46.75s-67.72,17.56-87.55,46.98c-3.14,4.66-8.27,7.17-13.49,7.17Z"/>
      <path class="k" d="M442.19,315.33c-2.74,0-5.52-.7-8.07-2.16-7.79-4.47-10.48-14.4-6.01-22.19,15.29-26.65,43.7-43.21,74.15-43.21s58.86,16.56,74.15,43.21c4.47,7.79,1.77,17.72-6.01,22.19-7.79,4.47-17.72,1.77-22.19-6.01-9.51-16.57-27.11-26.87-45.95-26.87s-36.44,10.3-45.95,26.87c-3,5.24-8.48,8.17-14.12,8.17Z"/>
      <path class="n" d="M735.51,584.11c-.21,1.02-.44,2.02-.66,3.02.23-1,.45-2,.66-3.02Z"/>
      <path class="n" d="M738.57,561.28s0-.08,0-.12h0s0,.08,0,.12Z"/>
      <path class="n" d="M612.32,359.7h0s-.04-.01-.06-.02c.02,0,.04.01.06.02Z"/>
      <path class="n" d="M737.93,568.36c.06-.52.11-1.04.16-1.57-.03.33-.07.66-.11.99-.02.19-.04.39-.06.58Z"/>
      <path class="n" d="M737.65,570.84c.1-.82.19-1.65.28-2.48,0,0,0,0,0,0-.09.83-.17,1.66-.27,2.48Z"/>
      <path class="n" d="M737.65,570.85c-.56,4.57-1.27,8.99-2.14,13.24.87-4.25,1.58-8.68,2.14-13.24Z"/>
      <path class="n" d="M738.27,564.89c-.04.4-.06.81-.1,1.21.12-1.28.23-2.58.33-3.89-.03.42-.07.83-.1,1.24-.04.48-.08.96-.12,1.43Z"/>
      <path class="q" d="M176.85,413.08c-7.25-11.98-16.59-20.35-26.71-26.58.97,6.53,1.74,14.65,1.33,22.69.9,31.02,22.48,33.72,30.57,60.25.02,1.03,0,2.06-.02,3.08l2.05.46c-6.39-20.03-7.7-41.9-7.22-59.89Z"/>
      <path class="o" d="M182.05,469.44c-8.09-26.53-29.67-29.22-30.57-60.25.4-8.04-.36-16.16-1.33-22.69-3.32-2.04-6.72-3.86-10.17-5.49-2.15-1.02-4.31-1.96-6.47-2.86-5.86-2.42-11.76-4.42-17.46-6.25,8.33,45.1-.22,47.05,2.17,70.11.94,9.08,4.77,18.97,9.36,28.02,3.93,1.45,7.6,2.76,10.92,4.19,10.52,4.54,17.43,10.24,17.43,25.05,0,1.83.03,3.66.07,5.49,5.38,5.35,12.37,11.38,22.19,18.77-3.52-20.31,3.35-34.96,3.86-51.03.03-1.02.05-2.04.02-3.08Z"/>
      <path class="m" d="M436.82,429.13c-29.97,43.46-64.44,32.97-65.04,113.6.9,31.77,11.69-2.1,28.47-30.87,3.98-6.82,8.88-13.11,14.47-19.05h0c-31.1-17.86,29.3-29.8,59.87-75.66,19.54-29.31,8.96-49.68-1.22-60.56-15.17,4.38-28.69,10.33-40.93,17.44,11.59,11.11,21.88,29.74,4.38,55.11Z"/>
      <path class="n" d="M730.92,601.07h0c.03-.08.05-.16.08-.24-.03.08-.06.16-.09.24Z"/>
      <path class="n" d="M734.54,588.49c-.2.87-.42,1.71-.64,2.56.22-.85.44-1.7.64-2.56Z"/>
      <path class="n" d="M733.47,592.74c-.21.78-.43,1.54-.65,2.31.22-.77.44-1.53.65-2.31Z"/>
      <path class="n" d="M732.29,596.86c-.22.71-.44,1.42-.67,2.12.23-.7.45-1.4.67-2.12Z"/>
      <path class="u" d="M323.82,628.63c-31.61-37.82-21.57-69.24,3.59-116.64,13.01-24.5,17.78-42.53,19.25-54.65-10.49,13.38-20.72,26.54-31.53,38.49-14.28,15.79-28.06,25.63-40.8,31.16-12.18,55.43,3.47,83.32,49.49,101.64Z"/>
      <path class="u" d="M290.53,421.1l.03-.04c.53-.88,1.05-1.76,1.54-2.64,0,0,.01-.02.02-.03,1.49-2.65,2.79-5.29,3.95-7.91.03-.07.06-.14.09-.21.37-.84.72-1.68,1.06-2.51,0-.01,0-.02.01-.03.7-1.73,1.33-3.45,1.9-5.14.02-.06.04-.13.06-.19.26-.76.5-1.53.73-2.28.03-.1.06-.19.09-.29.75-2.46,1.37-4.87,1.89-7.22.02-.1.04-.19.06-.29.15-.7.3-1.4.43-2.09.01-.07.03-.15.04-.22.3-1.55.55-3.07.76-4.55-8.09,7.64-18.86,11.02-18.86,11.02-66.09,12.14-49.46,68.79-49.46,68.79h2.03c27.39-11.91,43.85-28.04,53.62-44.16Z"/>
      <path class="u" d="M739.05,546.43c0-.32,0-.64-.01-.95,0-.94-.02-1.89-.04-2.84,0-.12,0-.23,0-.35,0-.3-.01-.59-.02-.89,0-.2-.02-.4-.02-.6-.03-1.02-.07-2.04-.11-3.07,0-.22-.01-.43-.02-.64-.01-.24-.02-.47-.04-.71,0-.1-.01-.2-.02-.3-.06-1.16-.13-2.32-.21-3.49-.02-.26-.03-.51-.05-.77,0-.14-.02-.27-.03-.41,0-.04,0-.07,0-.11-.11-1.52-.24-3.05-.38-4.58,0-.07-.01-.15-.02-.22-.32-3.41-.73-6.84-1.22-10.29-.02-.14-.04-.27-.06-.41-.22-1.55-.46-3.09-.72-4.65-.04-.25-.09-.51-.13-.76-.25-1.47-.51-2.94-.79-4.42-.05-.25-.09-.5-.14-.74-.3-1.56-.62-3.12-.95-4.68-.03-.14-.06-.27-.09-.41-.08-.36-.17-.73-.25-1.09-3.51,15.07-9.78,32.45-20.97,47.41-1.26,2.28-2.59,4.61-4.02,6.98-.7,1.16-1.41,2.33-2.15,3.51.27,1.8.49,3.59.68,5.38.88,8.1.99,16.18.44,24.12-.18,2.62-.44,5.22-.76,7.8-3.15,25.41-12.82,48.99-25.25,66.92,1.19-.88,2.38-1.79,3.58-2.74.29-.23.59-.46.89-.7.53-.42,1.06-.85,1.6-1.29.38-.31.77-.63,1.15-.95.78-.65,1.57-1.31,2.35-1.99.44-.38.88-.76,1.32-1.14.45-.39.9-.79,1.35-1.2.69-.62,1.39-1.25,2.09-1.9.43-.4.87-.81,1.3-1.22.61-.57,1.21-1.15,1.82-1.74.36-.35.73-.7,1.09-1.06.88-.86,1.76-1.74,2.64-2.64.21-.21.41-.43.62-.64.77-.79,1.54-1.6,2.32-2.42.3-.31.59-.63.89-.95.95-1.02,1.91-2.06,2.87-3.13.09-.1.18-.2.27-.3.91-1.02,1.82-2.06,2.74-3.12.26-.31.53-.61.79-.92,1-1.17,2.01-2.36,3.02-3.59.7-.78,1.38-1.6,2.05-2.44.22-.28.44-.59.66-.88.44-.58.88-1.15,1.3-1.76.26-.37.51-.76.77-1.14.37-.56.75-1.12,1.11-1.7.27-.43.53-.87.79-1.31.34-.57.68-1.13,1-1.72.27-.47.52-.96.78-1.45.31-.58.62-1.16.92-1.75.26-.52.52-1.05.77-1.58.28-.59.56-1.19.84-1.8.25-.56.5-1.13.75-1.71.26-.6.51-1.21.76-1.83.24-.6.49-1.22.72-1.83.23-.61.46-1.23.69-1.85.21-.57.41-1.14.61-1.72.03-.08.06-.16.09-.24.21-.61.41-1.23.61-1.85.23-.7.45-1.4.67-2.12.18-.59.35-1.2.53-1.81.22-.77.44-1.53.65-2.31.15-.55.29-1.12.43-1.68.22-.85.44-1.7.64-2.56.03-.14.07-.29.1-.43.07-.3.13-.62.2-.92.23-1,.45-2,.66-3.02,0,0,0-.01,0-.02.87-4.25,1.58-8.68,2.14-13.24,0,0,0,0,0-.01.1-.82.18-1.65.27-2.48.02-.19.04-.39.06-.58.03-.33.07-.66.11-.99.02-.23.05-.46.07-.69.04-.4.07-.81.1-1.21.04-.48.08-.95.12-1.43.03-.41.07-.83.1-1.24.02-.31.05-.62.07-.94,0-.04,0-.08,0-.12.01-.18.02-.36.03-.55.03-.52.06-1.04.09-1.57.03-.55.07-1.09.1-1.65.02-.34.04-.67.05-1.01,0-.05,0-.1,0-.15.03-.63.04-1.26.07-1.89.02-.63.05-1.26.07-1.89,0-.11,0-.23,0-.34,0-.12,0-.23,0-.35,0-.11,0-.22,0-.33,0-.44,0-.88.01-1.33.01-.9.03-1.79.03-2.69,0,0,0,0,0,0,0-.32,0-.65,0-.97Z"/>
      <path class="u" d="M613.06,517.25c-32.07-27.28-78.53,13.79-92.02,20.98-8.23,4.39-14.16,4.42-17.54,3.78,1.87,7.1,2.34,15.14,1.05,23.82-4.8,32.4-50.65,41.93-56.35,79.4-3.82,25.15-3.32,51.08-2.58,65.43,36.12-32.46,18.2-32.87,37.35-74.13,19.48-41.96,45.26-53.65,83.62-46.16,38.37,7.49,78.53-45.86,46.46-73.13Z"/>
      <path class="j" d="M599.27,556.51c-6.39.82-11.81-3.29-22.65-1.35-11.74,2.1-13.41,7.48-17.66,8.69-2.29.65-6.25,2.42-8.69-3.9-2.55-6.59,9.59-22.78,30.12-21.43,20.53,1.35,28.87,16.7,18.88,17.98Z"/>
      <path class="u" d="M304.94,669.81c-23.34-10.28-47.28-2.81-59.06,2.29,31.42,19.73,69.97,29.49,113.83,24.09,12.56-14.42,17.76-30.27,17.76-30.27-19.78,22.78-39.86,18.28-72.54,3.9Z"/>
      <path class="l" d="M185.19,554.01c-5.72-6.01-19.51-17.68-27.12-24.02,3.8,26.87,12.53,52.75,25.56,75.8,10.93-30.01,8.25-44.75,1.56-51.78Z"/>
      <path class="h" d="M78.35,355.11c-29.34-33.45-26.87,35.31-5.17,73.13,3.51,5.49,7.14,10.21,10.82,14.3,7.22-16.91,14.29-48.23-5.65-87.43Z"/>
      <path class="s" d="M118.2,442.02c-2.39-23.06,6.17-25.01-2.17-70.11-6.34-2.04-12.44-3.87-18.01-5.83-6.89-2.43-12.97-5.07-17.65-8.57-.69-.86-1.36-1.64-2.02-2.39,19.94,39.2,12.87,70.52,5.65,87.43,2.45,2.73,4.93,5.18,7.42,7.38,12.57,11.15,25.33,16.13,36.14,20.11-4.59-9.04-8.42-18.94-9.36-28.02Z"/>
      <path class="i" d="M555.01,712.87c-2.27,7.03-7.81,23.36-10.44,29.32-5.06,11.45-8.14,19.65.99,19.65.87,0,1.74-.02,2.59-.05,11.62-8.48,20.02-16.94,26.09-24.84,8.41-10.95,18.98-26.63,20.78-34.01-15.87,6.02-31.7,6.73-40.01,9.92Z"/>
      <path class="t" d="M739.05,547.42c0,.9-.02,1.8-.03,2.69.01-.71.03-1.42.03-2.14,0-.19,0-.37,0-.56,0,0,0,0,0,0Z"/>
      <path class="t" d="M651.07,424.78c-18.6-6.59-23.16-32.72.15-47.05-6.46-4-13.34-7.65-20.64-10.93-.39-.18-.78-.36-1.17-.53-1.49-.66-3.01-1.3-4.54-1.92-.55-.22-1.09-.45-1.64-.67-1.49-.59-2.99-1.17-4.52-1.74-.59-.22-1.19-.43-1.79-.65-1.52-.55-3.05-1.08-4.6-1.59-.02,0-.04-.01-.06-.02-.53-.18-1.08-.34-1.61-.51-1.68-.54-3.38-1.08-5.1-1.58.23,9-.67,18.75-3.94,27.63-9.59,26.08-39.89,53.35,29.21,60.85,69.1,7.49,68.95,31.89,60.11,75.83-8.21,40.8,13.16,40.16,14.9,40.31.15.01.65.06,1.44.15-.19-1.79-.41-3.59-.68-5.38.74-1.18,1.45-2.35,2.15-3.51,1.43-2.37,2.77-4.7,4.02-6.98-.09.12-.17.24-.26.36-1.49-48.63,22.18-108.28-61.43-122.07Z"/>
      <path class="t" d="M733.73,499.08c.08.36.17.73.25,1.09-.08-.38-.16-.75-.24-1.13,0,.01,0,.03-.01.04Z"/>
      <path class="t" d="M738.36,529.79c-.08-1.01-.17-2.03-.26-3.05.14,1.53.27,3.06.38,4.58,0-.03,0-.05,0-.08-.04-.49-.07-.97-.11-1.46Z"/>
      <path class="t" d="M736.25,512.19c-.05-.34-.12-.68-.17-1.02.26,1.55.5,3.1.72,4.65-.09-.59-.17-1.19-.26-1.78-.09-.62-.18-1.23-.28-1.85Z"/>
      <path class="t" d="M737.92,524.94c-.06-.61-.14-1.23-.21-1.85.13,1.14.26,2.29.36,3.42,0-.02,0-.03,0-.05-.05-.51-.1-1.02-.15-1.53Z"/>
      <path class="t" d="M737.71,523.09c-.08-.72-.15-1.44-.24-2.16.09.72.16,1.44.24,2.16Z"/>
      <path class="t" d="M737.47,520.93c-.19-1.56-.39-3.13-.61-4.7.22,1.57.42,3.14.61,4.7Z"/>
      <path class="t" d="M735.37,507.09c-.07-.37-.14-.73-.21-1.1.28,1.48.54,2.95.79,4.42-.07-.41-.14-.83-.21-1.24-.12-.69-.24-1.39-.37-2.08Z"/>
      <path class="t" d="M738.7,534.69c-.04-.69-.09-1.39-.14-2.09.08,1.17.15,2.33.21,3.49-.01-.21-.02-.42-.03-.63-.01-.26-.02-.51-.04-.77Z"/>
      <path class="t" d="M734.37,502c-.1-.48-.2-.95-.3-1.43.34,1.56.65,3.12.95,4.68-.07-.37-.14-.75-.21-1.12-.14-.71-.29-1.42-.44-2.13Z"/>
      <path class="t" d="M737.93,568.36s0,0,0,0c.02-.19.04-.39.06-.58-.02.19-.04.39-.06.58,0,0,0,0,0,0Z"/>
      <path class="p" d="M203.59,507.83c-.65-1.4-1.16-2.78-1.52-4.13-3.43-17.04,1.23-24.51,8.58-28.74-8.47-12.39-24.91-49.91,41.54-96.7-2.3.48-4.67.94-7.19,1.35-29.93,4.94-47.02,19.52-55.79,30.13-5.59,6.76-7.82,11.91-7.82,11.91-1.4-3.05-2.91-5.89-4.53-8.56-.48,17.99.83,39.86,7.22,59.89,4.11,12.89,10.33,25.02,19.51,34.85Z"/>
      <path class="p" d="M194.19,535.08c-6.06-4.21-11.36-8.03-16.02-11.54-9.81-7.4-16.8-13.42-22.19-18.77.05,1.8.12,3.6.21,5.4.33,6.65.96,13.26,1.89,19.82,7.6,6.34,21.4,18.01,27.12,24.02,6.69,7.02,9.37,21.76-1.56,51.78,8.11,14.36,17.88,27.61,29.17,39.34-1.42-8.82-2.06-22.15,1.32-39.75,6.59-34.32,7.94-50.95-19.93-70.29Z"/>
      <path class="p" d="M504.56,565.84c1.28-8.68.81-16.73-1.05-23.82-5.1-19.39-20.7-31.62-40.01-29.86-26.38,2.4-41.96,46.76-45.26,59.05-3.3,12.29-35.07,78.53-86.92,60.25-2.59-.91-5.07-1.86-7.49-2.82-46.02-18.31-61.68-46.21-49.49-101.64-7.43,3.23-14.51,4.99-21.12,5.6-12.01,1.12-22.51-1.53-30.85-6.02,11.48,8.49,29.77,29.6,19.34,74.3-5.1,33.27,21.88,39.86,50.95,44.66,27.58,9.59,68.94,24.28,100.71-5.99,31.77-30.27,52.45-105.9,84.22-88.02,18.88,13.07-9.29,40.96-17.98,50.55-8.69,9.59-42.56,32.37-44.66,76.73-2.1,44.36-23.08,41.66-37.17,49.16-12.58,6.69-23.48,7.68-32.07,26.36,48.09,2.63,85.77-37.54,96.75-42.24.41.05.81.09,1.22.14l.04.15c.05-.04.1-.09.15-.13.63.07,1.24.14,1.86.21-.03-.57-.06-1.17-.1-1.78-.74-14.35-1.24-40.29,2.58-65.43,5.69-37.47,51.55-46.99,56.35-79.4Z"/>
      <path class="p" d="M679.39,583.07c-19.82-7.66-4.37-25.26-9.98-75.41-7.19-64.29-93.97-40.91-115.55-36.87-21.58,4.05-26.08-8.09-26.08-8.09-7.64-16.64-.45-27.43,24.73-59.8,14.5-23.24,9.68-41.58,1.51-53.94-8.19-.52-16.03-.69-23.56-.55-6.54.12-12.84.47-18.92,1.05,18.54,39.64.44,68.23-28.57,89.86-25.15,18.75-50.29,34.36-68.26,53.48-5.59,5.95-10.49,12.23-14.47,19.05-16.79,28.77-27.58,62.64-28.47,30.87.6-80.63,35.07-70.14,65.04-113.6,17.5-25.37,7.21-44-4.38-55.11-6.97,4.04-13.52,8.46-19.73,13.17-7.66,5.81-14.79,12.06-21.53,18.62,48.02,19.8-23.02,52.13-35.88,92.56-17.48,54.97-30.62,79.32-20.38,95.01,32.67,37.77,60.55-29.37,75.23-61.74,14.69-32.37,64.14-76.73,87.22-56.65,23.08,20.08,11.09,38.37,49.76,17.98,68.34-29.37,100.06,7.57,104.01,34.77,3.95,27.2-35.67,96.21-108.28,86.92-36.19,3.6-34.39,51.48-75.76,93.37,41.36-14.84,41.06-53.95,117.19-71.64,13.1-4.75,25.15-13.09,34.16-20.49,9.74-8,15.9-14.88,15.9-14.88l22.62-4.22,3.93-.73,30.68-5.72,14.25-2.66c-12.46-1.09-20.85-2.46-26.44-4.62Z"/>
      <g>
        <path class="n" d="M605.55,357.59s0,.01,0,.02c1.72.5,3.42,1.02,5.1,1.56-1.68-.54-3.38-1.08-5.1-1.58Z"/>
        <path class="n" d="M738.49,562.29c-12.18-.05-32.55-.08-32.65-.08-1.74-.15-23.1.49-14.9-40.31,8.84-43.94,8.99-68.34-60.11-75.83-69.1-7.49-38.8-34.77-29.21-60.85,3.26-8.88,4.16-18.62,3.94-27.61-2.84-.83-5.73-1.6-8.67-2.33-.73-.18-1.48-.35-2.22-.53-1.8-.42-3.62-.83-5.46-1.21-1.34-.28-2.69-.55-4.06-.81-.85-.16-1.71-.32-2.57-.48-2.16-.38-4.35-.74-6.56-1.06-.59-.09-1.18-.17-1.78-.25-2.45-.34-4.91-.66-7.42-.93,0,0,0,0-.01,0-.21-.02-.41-.04-.62-.06-1.98-.2-3.93-.38-5.87-.54-2.09-.17-4.17-.32-6.22-.45-.02,0-.04,0-.06,0,8.16,12.36,12.98,30.69-1.51,53.94-25.18,32.37-32.37,43.16-24.73,59.8,0,0,4.5,12.14,26.08,8.09,21.58-4.05,108.35-27.43,115.55,36.87,5.61,50.15-9.84,67.75,9.98,75.41,5.59,2.16,13.98,3.53,26.44,4.62l-14.25,2.66,15.38,3.93c.32-2.58.58-5.19.76-7.8l-9.98-.59,36.99,1.79c1.81-7.88,3.08-16.41,3.76-25.39Z"/>
      </g>
      <path class="t" d="M702.24,592.74l-10.67-2.4c-14.33,3.55-14.69,2.74-40.97,44.74-20.09,32.1-54.33,58.72-76.55,73.81,17.31-4.11,33.12-9.95,45.04-15.01,60.51-37.02,83.15-101.15,83.15-101.15Z"/>
      <path class="r" d="M669.68,605.68s25.96-13.63,57.23,5.38c3.24-6.95,5.91-14.96,7.9-23.77-21.26-3.17-54.64-4.1-65.14,18.4Z"/>
      <path class="g" d="M709.21,585.7s-72.44-16.13-106.61,43.67c-32.19,56.33-56.4,30.48-101.95,86.68,22.92.09,37.84-2.16,54.49-3.97-.04.26-.1.52-.14.78,11.12-1.6,20.97-3.66,29.59-5.92,66.12-41.27,59.67-99.93,124.61-121.25Z"/>
    </g>
  </g>
</svg>