<?xml version="1.0" encoding="UTF-8"?>
<svg id="b" data-name="Layer 2" xmlns="http://www.w3.org/2000/svg" viewBox="0 0 370.69 378.94">
  <defs>
    <style>
      .d {
        fill: #0000d3;
      }

      .e {
        fill: #fc7800;
      }
    </style>
  </defs>
  <g id="c" data-name="Layer 1">
    <g>
      <path class="e" d="M185.05,378.8c-26.49,0-52.99.02-79.48-.01-6.47,0-12.94-.12-19.41-.3-8.49-.23-16.5-7.41-16.79-15.88-.45-13.13-.3-26.28-.35-39.42-.12-30.71-.17-61.42-.35-92.13-.04-6.13-2.81-10.79-8.49-13.52-3.58-1.72-7.15-1.83-10.58.24-19.21,11.62-44.15-.7-48.87-22.96-3.88-18.31,7.92-40.59,32.04-41.15,5.57-.13,10.93,1.48,15.28,4.88,7.45,5.82,19.97-.5,20.25-9.76.32-10.36.66-20.73.72-31.09.17-32.66.2-65.32.32-97.98.04-11.35,7.39-18.86,18.77-19.24,5.44-.18,10.88-.28,16.33-.29C152.2.11,199.95.05,247.71,0c10.39-.01,17.98,5.37,20.27,14.52.59,2.35.66,4.87.66,7.31-.02,14.28-.17,28.55-.18,42.83,0,4.57.66,8.99,4.08,12.51,2.94,3.02,6.44,4.7,10.66,4.72,22.7.1,45.4.17,68.09.25,1.85,0,3.7-.07,5.55.03,7.42.4,13.02,5.36,13.23,12.76.47,16.11.46,32.24.62,48.36.01,1.53.02,3.11-.33,4.58-2.37,10.24-12.38,14.56-22.5,9.62-7.53-3.68-15.26-4.83-23.2-1.92-11.45,4.19-18.85,12.22-21.07,24.34-2.47,13.52,1.92,24.71,12.79,33.1,6.96,5.37,14.91,7.75,23.69,5.72,2.43-.56,4.73-1.87,6.96-3.06,8.43-4.53,18.05-2.29,21.71,5.62,1.31,2.84,1.58,6.34,1.64,9.55.22,14.06.21,28.13.24,42.19,0,3.87-.83,7.52-3.27,10.67-2.68,3.44-6.11,5.38-10.54,5.39-13.97.02-27.95.34-41.9-.05-8.35-.23-15.15,6.36-14.81,14.75.47,11.59.27,23.21.4,34.81.02,1.64.05,3.34.52,4.88.34,1.1,1.21,2.39,2.2,2.87,8.66,4.17,10.95,12.98,4.06,19.68-4.81,4.68-10.94,8.12-16.8,11.58-2.12,1.25-5.15,1.28-7.77,1.28-32.56.08-65.11.05-97.67.05,0-.04,0-.09,0-.13Z"/>
      <path class="d" d="M250.94,270.4c-.92-7.13-5.28-11.93-9.06-17.14-12.31-16.98-25.23-33.39-41.21-47.19-3.58-3.09-6.36-7.1-9.51-10.7l.37-.44,10.6,6.3c2.05-3.39,3.9-6.5,5.81-9.57,5.26-8.43,10.46-16.9,15.85-25.26,3.87-6,8.23-11.75,7.93-19.52,2.52,2.85,1.85,6.13,1.23,9.22-1.43,7.15-5.06,13.34-9.03,19.33-3.19,4.8-3.31,5.29.81,8.99,5.49,4.92,11.22,9.58,16.85,14.34.18.16.51.14.82.22.09-.92.16-1.74.27-2.87,3.84,2.48,7.29,4.87,10.9,6.98,3.62,2.12,7.28,4.26,11.15,5.82,3.06,1.24,4.77,3.33,6.02,6.11,2.61,5.78,5.26,11.55,7.85,17.34,1.3,2.91,4.23,3.5,6.2,1,.83-1.05,1.35-2.56,1.45-3.9.22-2.87.07-5.77.07-9.02,1.52.85,2.64,1.55,3.82,2.13,2.79,1.37,4.05,3.42,3.6,6.64-.73,5.21-.52,10.75-6.71,13.27-.83.34-1.34,1.91-1.58,3-.09.41,1.01,1.56,1.55,1.55,5.22-.11,10.64.12,14.6-4.2,4.69-5.12,7.51-19.32,3.34-26.14-2.62-4.28-5.01-8.86-8.38-12.49-10.4-11.19-21.23-21.99-31.88-32.94-.61-.63-1.19-1.29-1.78-1.94.14-.1.28-.19.42-.29,1.17.75,2.34,1.51,3.51,2.26l.47-.6c-3.25-2.98-6.42-6.05-9.77-8.91-2.96-2.52-6.3-4.61-9.13-7.26-1.16-1.09-2.22-3.32-1.93-4.76,1.27-6.38.8-12.65-.29-18.92-1.68-9.63-2.51-19.6-10.55-27.12.76-.11,1.13-.17,1.5-.22,3.37-.45,6.77-1.45,8.24-4.61,1.29-2.78,1.49-6.09,2.04-9.18.07-.41-.48-1.19-.93-1.4-2.55-1.16-4.86-3.02-8.06-2.12-1.87.53-3.9.47-5.86.67l-.43-.94c1.12-.89,2.15-2.35,3.37-2.54,2.87-.44,5.85-.53,8.75-.28,4.59.39,6.23-1.52,4.63-6.19h-8.79c-.05-.45-.03-.3-.08-.74,2.55-.53,5.12-.97,7.62-1.64.83-.22,1.94-.91,2.18-1.63,1-3.1-.42-5.79-3.56-6.81-3.32-1.08-6.63-1.65-10.23-.69-1.92.51-4.31.28-6.2-.41-2.52-.92-2.51-3.06-.72-5.06,3.98-4.47,8.69-4.98,13.95-2.87,2.22.89,4.41,1.87,6.77,2.87,1.67-4.07.13-7.19-1.85-10.29-1.64-2.57-3.54-5.1-4.53-7.92-5.91-16.87-27.89-24.88-41.94-10.05-4.37,4.61-7.54,10.44-10.88,15.94-4.06,6.7-8.52,12.81-16.15,15.79-.57.22-1.09.59-2.13,1.16,2.04.73,3.53,1.27,5.92,2.13-8.55,1.13-16.33,1.65-23.86,3.29-6.8,1.48-17.21,9.7-18.83,13.55,1.53-.11,3.07-.23,4.62-.34l.16.79c-8.11,2.79-14.65,7.52-19.41,15.06h7.92c.11.42.09.37.2.79-10.06,5.48-16,14.41-21,24.18-.61,1.2-2,2.01-3.02,3.01-3.48,3.43-6.96,6.86-10.44,10.29l.44.76c2.22-.63,4.44-1.25,7.03-1.99-3.38,4.73-6.66,8.82-9.36,13.26-2.61,4.3-4.64,8.96-6.91,13.46l.79.66c1.05-.78,2.09-1.56,3.39-2.53-1.62,7.18-3.31,13.92-4.63,20.73-1.82,9.33-3.11,18.77-7.25,27.51-.73,1.53-.56,3.62-.43,5.41.55,7.33,1.21,14.66,1.95,21.98,0,.01,0,.03,0,.04.22,2.01,2.62,2.93,4.23,1.7.52-.4,1.02-.69,1.56-.81,5.64-1.26,10.11-4.14,13.64-8.8.07,1.09.17,2.21-.32,2.92-2.17,3.16-4.71,5.99-8.52,7.22-1.84.59-4.38.88-3.93,3.28.14.77,3.47,1.58,5.19,1.33,9.31-1.36,18-12.24,17.37-21.67-.28-4.28-1.08-8.53-1.65-12.79-.52-3.89-.54-7.6,1.13-11.41,2.57-5.89,4.56-12.03,6.82-18.06.19-.52.77-1.41.87-1.37,2.52.96,3.01-1.33,3.66-2.58,3.43-6.51,7.06-12.96,9.77-19.77,1.71-4.29,4.02-7.27,8-9.51,7.51-4.22,13.84-9.91,18.69-17.07,3.46-5.1,6.56-10.44,10.23-16.32-.47,3.29-.65,6.08-1.3,8.76-2.57,10.66-9.48,18.41-17.24,25.63-1.64,1.53-3.03,3.66-3.72,5.78-.91,2.78-.96,5.84-1.47,8.76-.82,4.62-1.38,9.33-2.67,13.82-1.72,5.97-4.42,11.67-6.02,17.67-3.33,12.49-1.33,23.61,9.7,31.84,7.14,5.33,14.56,10.32,21.43,15.99,7.78,6.43,15.99,12.08,24.72,17.14,6.9,4,13.42,8.67,20.1,13.06,2.35,1.54,3.25,3.68,3.18,6.54-.17,6.98-.38,13.98-.03,20.94.3,6.02,1.35,12.01,2.07,18.02l1.12.05c.4-1.99.79-3.97,1.19-5.96,1.58,8.81,7.82,15.35,10.91,23.29,2.32,5.95,3.97,12.2,5.57,18.4.94,3.65,1.02,7.51,1.85,11.2.99,4.4,4.08,6.51,8.53,6.38,11.79-.35,23.6-.41,35.37-1.11,7.57-.45,14.59-3.22,20.49-8.11,1.33-1.1,2.5-3.58,2.24-5.17-.39-2.32-2.79-3.33-5.27-3.33-4.11.01-8.22.12-12.32-.01-1.47-.05-3.09-.39-4.36-1.1-4.46-2.52-8.75-5.33-13.18-7.88-2.97-1.71-4.75-4.27-5.45-7.46-1.05-4.79-1.97-9.62-2.59-14.48-1.67-13.1-3.19-26.21-7.36-38.83-1.73-5.23-3.44-10.46-5.18-15.72,1.32,1.05,2.67,2.13,4.28,3.41Z"/>
      <path class="d" d="M119.6,286.69c-5.78,5.6-9.03,12.23-12.02,18.98-3.32,7.47-8.07,13.76-14.66,18.64-2.31,1.71-4.48,3.62-6.9,5.14-3.94,2.48-5.5,6.21-6.04,10.54-.52,4.22,1.41,8.55,4.91,10.13,8.53,3.87,16.52,8.55,23.86,14.39,1.62,1.29,3.76,2.58,5.71,2.66,11.18.48,22.37.63,33.55.77,1.08.01,2.86-.52,3.1-1.22.36-1.05.01-2.75-.7-3.66-.88-1.13-2.34-1.97-3.71-2.52-2.27-.91-4.63-1.75-7.03-2.16-9.16-1.57-13.51-8.56-17.83-15.58-1.07-1.73-.96-3.57.71-5,3.26-2.8,6.36-5.84,9.88-8.27,11.38-7.88,21.57-17.04,30.36-27.71,2.5-3.03,4.49-6.48,7.09-10.29-.24,2.51-.41,4.39-.59,6.26l.87.27c1.12-1.78,2.59-3.43,3.29-5.36,3.43-9.39,6.61-18.87,10.01-28.27.87-2.42.16-3.68-1.9-5.02-9.01-5.85-17.91-11.87-26.86-17.81-3.87-2.57-7.77-5.11-11.77-7.73-.32.76-.57,1.12-.62,1.51-1.33,10.76-2.72,21.52-3.88,32.3-.21,1.96-.67,2.96-2.48,3.96-4.46,2.48-8.84,5.18-12.95,8.19-2.27,1.66-3.95,4.12-6.31,6.66,1.44.1,1.91.13,2.9.2Z"/>
    </g>
  </g>
</svg>